<svg width="127" height="36" viewBox="0 0 127 36" fill="none" xmlns="http://www.w3.org/2000/svg">
<path d="M19.375 35.3281H14.0938V24.8438C13.4688 25.6979 12.7135 26.3333 11.8281 26.75C10.9531 27.1562 9.98958 27.3594 8.9375 27.3594C7.5625 27.3594 6.33333 27.1146 5.25 26.625C4.16667 26.1354 3.25 25.4688 2.5 24.625C1.75 23.7708 1.17708 22.7708 0.78125 21.625C0.385417 20.4792 0.1875 19.25 0.1875 17.9375C0.1875 16.625 0.385417 15.3958 0.78125 14.25C1.17708 13.1042 1.75 12.1094 2.5 11.2656C3.25 10.4115 4.16667 9.73958 5.25 9.25C6.33333 8.76042 7.5625 8.51562 8.9375 8.51562C9.63542 8.51562 10.2969 8.61979 10.9219 8.82812C11.5573 9.03646 12.1354 9.33333 12.6562 9.71875C13.1875 10.0938 13.651 10.5521 14.0469 11.0938C14.4531 11.625 14.7708 12.2188 15 12.875L17.3438 8.95312H19.375V35.3281ZM14.0625 17.9375C14.0625 17.4688 14.0365 16.974 13.9844 16.4531C13.9427 15.9323 13.8646 15.4167 13.75 14.9062C13.6354 14.3958 13.474 13.9115 13.2656 13.4531C13.0677 12.9844 12.8073 12.5729 12.4844 12.2188C12.1719 11.8542 11.7917 11.5677 11.3438 11.3594C10.8958 11.151 10.375 11.0469 9.78125 11.0469C9.1875 11.0469 8.67188 11.1562 8.23438 11.375C7.79688 11.5833 7.42188 11.8698 7.10938 12.2344C6.79688 12.5885 6.53646 13 6.32812 13.4688C6.13021 13.9375 5.97396 14.4271 5.85938 14.9375C5.74479 15.4479 5.66146 15.9635 5.60938 16.4844C5.56771 16.9948 5.54688 17.4792 5.54688 17.9375C5.54688 18.3958 5.56771 18.8854 5.60938 19.4062C5.66146 19.9271 5.74479 20.4427 5.85938 20.9531C5.97396 21.4635 6.13021 21.9531 6.32812 22.4219C6.53646 22.8906 6.79688 23.3073 7.10938 23.6719C7.42188 24.026 7.79688 24.3125 8.23438 24.5312C8.67188 24.7396 9.1875 24.8438 9.78125 24.8438C10.3229 24.8438 10.8021 24.7344 11.2188 24.5156C11.6458 24.2865 12.0156 23.9844 12.3281 23.6094C12.651 23.2344 12.9219 22.8073 13.1406 22.3281C13.3594 21.849 13.5365 21.3542 13.6719 20.8438C13.8073 20.3333 13.9062 19.8281 13.9688 19.3281C14.0312 18.8177 14.0625 18.3542 14.0625 17.9375ZM22.875 19.2812C22.875 18.4583 22.9427 17.6042 23.0781 16.7188C23.224 15.8333 23.4271 14.9479 23.6875 14.0625C23.9583 13.1771 24.2812 12.3021 24.6562 11.4375C25.0312 10.5729 25.4531 9.74479 25.9219 8.95312H29.7812C29.5208 9.73438 29.2865 10.5521 29.0781 11.4062C28.8802 12.25 28.7083 13.099 28.5625 13.9531C28.4271 14.7969 28.3177 15.625 28.2344 16.4375C28.1615 17.25 28.125 18.0052 28.125 18.7031C28.125 19.1094 28.1406 19.5469 28.1719 20.0156C28.2135 20.474 28.2812 20.9375 28.375 21.4062C28.4688 21.8646 28.599 22.3073 28.7656 22.7344C28.9427 23.1615 29.1667 23.5417 29.4375 23.875C29.7083 24.1979 30.0365 24.4583 30.4219 24.6562C30.8177 24.8438 31.2812 24.9375 31.8125 24.9375C32.3333 24.9375 32.7969 24.8229 33.2031 24.5938C33.6198 24.3542 33.9844 24.0469 34.2969 23.6719C34.6094 23.2865 34.875 22.849 35.0938 22.3594C35.3125 21.8698 35.4896 21.3698 35.625 20.8594C35.7708 20.3385 35.875 19.8333 35.9375 19.3438C36.0104 18.8438 36.0469 18.3958 36.0469 18V8.95312H41.3281V27H39.2969L36.875 22.7969C36.5729 23.4948 36.2031 24.1302 35.7656 24.7031C35.3385 25.2656 34.849 25.75 34.2969 26.1562C33.7448 26.5625 33.1302 26.875 32.4531 27.0938C31.7865 27.3125 31.0625 27.4219 30.2812 27.4219C29.0312 27.4219 27.9427 27.2188 27.0156 26.8125C26.0885 26.4062 25.3177 25.8438 24.7031 25.125C24.0885 24.4062 23.6302 23.5521 23.3281 22.5625C23.026 21.5625 22.875 20.4688 22.875 19.2812ZM51.2812 4.59375C51.2812 4.98958 51.2031 5.36458 51.0469 5.71875C50.901 6.07292 50.6979 6.38021 50.4375 6.64062C50.1771 6.90104 49.8698 7.10938 49.5156 7.26562C49.1615 7.41146 48.7865 7.48438 48.3906 7.48438C47.9948 7.48438 47.6198 7.41146 47.2656 7.26562C46.9219 7.10938 46.6198 6.90104 46.3594 6.64062C46.099 6.38021 45.8906 6.07292 45.7344 5.71875C45.5885 5.36458 45.5156 4.98958 45.5156 4.59375C45.5156 4.19792 45.5885 3.82812 45.7344 3.48438C45.8906 3.13021 46.099 2.82292 46.3594 2.5625C46.6198 2.30208 46.9219 2.09896 47.2656 1.95312C47.6198 1.79688 47.9948 1.71875 48.3906 1.71875C48.7865 1.71875 49.1615 1.79688 49.5156 1.95312C49.8698 2.09896 50.1771 2.30208 50.4375 2.5625C50.6979 2.82292 50.901 3.13021 51.0469 3.48438C51.2031 3.82812 51.2812 4.19792 51.2812 4.59375ZM51.0469 27H45.75V8.96875H51.0469V27ZM69.7812 27H54.5V24.9062L63.9531 11.0469H54.5V8.95312H69.7812V11.0469L60.3281 24.9062H69.7812V27ZM87.4688 27H72.1875V24.9062L81.6406 11.0469H72.1875V8.95312H87.4688V11.0469L78.0156 24.9062H87.4688V27ZM96.1406 27H90.8594V0.640625H92.8906L96.1406 6.125V27ZM104.891 18.4375C105.536 18.5833 106.182 18.6979 106.828 18.7812C107.474 18.8646 108.125 18.9062 108.781 18.9062C109.469 18.9062 110.104 18.8438 110.688 18.7188C111.281 18.5833 111.792 18.3646 112.219 18.0625C112.656 17.75 113 17.3385 113.25 16.8281C113.5 16.3177 113.625 15.6823 113.625 14.9219C113.625 14.3073 113.542 13.7448 113.375 13.2344C113.208 12.724 112.958 12.2865 112.625 11.9219C112.302 11.5573 111.901 11.276 111.422 11.0781C110.943 10.8698 110.385 10.7656 109.75 10.7656C109.156 10.7656 108.62 10.875 108.141 11.0938C107.672 11.3125 107.255 11.6094 106.891 11.9844C106.536 12.349 106.229 12.776 105.969 13.2656C105.719 13.7552 105.51 14.2656 105.344 14.7969C105.177 15.3281 105.057 15.8646 104.984 16.4062C104.911 16.9479 104.875 17.4583 104.875 17.9375C104.875 18.0208 104.875 18.1042 104.875 18.1875C104.875 18.2708 104.88 18.3542 104.891 18.4375ZM117.906 14.875C117.906 15.6146 117.786 16.276 117.547 16.8594C117.307 17.4323 116.979 17.9375 116.562 18.375C116.156 18.8125 115.682 19.1823 115.141 19.4844C114.599 19.7865 114.021 20.0365 113.406 20.2344C112.792 20.4219 112.156 20.5573 111.5 20.6406C110.854 20.724 110.224 20.7656 109.609 20.7656C108.828 20.7656 108.057 20.7135 107.297 20.6094C106.536 20.4948 105.786 20.3177 105.047 20.0781C105.161 20.7656 105.344 21.4219 105.594 22.0469C105.844 22.6615 106.177 23.2031 106.594 23.6719C107.01 24.1302 107.521 24.4948 108.125 24.7656C108.74 25.0365 109.464 25.1719 110.297 25.1719C110.849 25.1719 111.375 25.0885 111.875 24.9219C112.375 24.7552 112.833 24.5208 113.25 24.2188C113.667 23.9167 114.031 23.5573 114.344 23.1406C114.667 22.724 114.927 22.2604 115.125 21.75L117.406 22.5938C117.062 23.4167 116.589 24.1302 115.984 24.7344C115.391 25.3281 114.714 25.8229 113.953 26.2188C113.203 26.6042 112.401 26.8906 111.547 27.0781C110.703 27.2656 109.865 27.3594 109.031 27.3594C107.656 27.3594 106.385 27.1302 105.219 26.6719C104.052 26.2031 103.047 25.5521 102.203 24.7188C101.359 23.8854 100.698 22.8906 100.219 21.7344C99.7396 20.5781 99.5 19.3125 99.5 17.9375C99.5 16.5625 99.7396 15.2969 100.219 14.1406C100.698 12.9844 101.359 11.9896 102.203 11.1562C103.047 10.3229 104.052 9.67708 105.219 9.21875C106.385 8.75 107.656 8.51562 109.031 8.51562C109.698 8.51562 110.38 8.5625 111.078 8.65625C111.776 8.75 112.453 8.90104 113.109 9.10938C113.766 9.30729 114.385 9.56771 114.969 9.89062C115.552 10.2135 116.057 10.6146 116.484 11.0938C116.922 11.5625 117.266 12.1094 117.516 12.7344C117.776 13.3594 117.906 14.0729 117.906 14.875Z" fill="black"/>
<path d="M126.328 24.6562C126.328 25.0521 126.255 25.4271 126.109 25.7812C125.964 26.125 125.76 26.4271 125.5 26.6875C125.24 26.9375 124.938 27.1354 124.594 27.2812C124.25 27.4375 123.88 27.5156 123.484 27.5156C123.089 27.5156 122.719 27.4375 122.375 27.2812C122.031 27.1354 121.729 26.9375 121.469 26.6875C121.208 26.4271 121.005 26.125 120.859 25.7812C120.714 25.4271 120.641 25.0521 120.641 24.6562C120.641 24.2708 120.714 23.9062 120.859 23.5625C121.005 23.2083 121.208 22.9062 121.469 22.6562C121.729 22.3958 122.031 22.1927 122.375 22.0469C122.719 21.8906 123.089 21.8125 123.484 21.8125C123.88 21.8125 124.25 21.8906 124.594 22.0469C124.938 22.1927 125.24 22.3958 125.5 22.6562C125.76 22.9062 125.964 23.2083 126.109 23.5625C126.255 23.9062 126.328 24.2708 126.328 24.6562Z" fill="#0070FF"/>
</svg>
